<svg xmlns="http://www.w3.org/2000/svg" viewBox="0 0 40 40"><g stroke="#000" stroke-width="2"><path d="M20 0v5M26.84 1.206l-1.71 4.699M32.856 4.68l-3.214 3.83M37.32 10l-4.33 2.5M39.696 16.527l-4.924.868M39.696 23.473l-4.924-.868M37.32 30l-4.33-2.5M32.856 35.32l-3.214-3.83M26.84 38.794l-1.71-4.699M20 40v-5M13.16 38.794l1.71-4.699M7.144 35.32l3.214-3.83M2.68 30l4.33-2.5M.304 23.473l4.924-.868M.304 16.527l4.924.868M2.68 10l4.33 2.5M7.144 4.68l3.214 3.83M13.16 1.206l1.71 4.699"/></g><path d="m15 11.34-1.16 17.99L20 20l11.16-.67"/></svg>